# xmcd
#
# Track frame offsets:
#	150
#	18486
#	34840
#	52522
#	73026
#	89932
#	108340
#	127035
#	141810
#	152668
#	166194
#	184250
#	195800
#	216926
#	230278
#	251129
#	262680
#	276360
#	295652
#
# Disc length: 4250 seconds
#
# Revision: 0
# Processed by: cddbd v1.5.2PL0 Copyright (c) Steve Scherf et al.
# Submitted via: audiograbber 1.83.01
#
DISCID=0d109813
DTITLE=Veronika Fischer - Unveröffentlichte Songs and Raritäten
DYEAR=2006
DGENRE=Pop-rock
TTITLE0=Veronika Fischer and Band - Hitmedley
TTITLE1=Veronika Fischer - Der Mond zieht an den Wassern
TTITLE2=Veronika Fischer - Halt mich fest
TTITLE3=Veronika Fischer and Band - Zeit hat immer Eile
TTITLE4=Veronika Fischer and Band - Samariterblues
TTITLE5=Veronika Fischer and Band - Als ich noch ein Kind war
TTITLE6=Panta Rhei - Alles fliesst
TTITLE7=Veronika Fischer and Band - Zigarettenblues
TTITLE8=Veronika Fischer - Ich bin geboren in Berlin
TTITLE9=Veronika Fischer - In meiner Stadt
TTITLE10=Veronika Fischer - Berlin
TTITLE11=Veronika Fischer - Alex
TTITLE12=Veronika Fischer and Harald Juhnke - Darum liebe ich dich so
TTITLE13=Veronika Fischer - Manchmal im Traum
TTITLE14=Veronika Fischer - Nur mit dir leben
TTITLE15=Veronika Fischer - An der Uhr
TTITLE16=Veronika Fischer - Tage gibt es 
TTITLE17=Veronika Fischer and Tobias Künzel - Ich hab dich lieb
TTITLE18=Panta Rhei - Nachts
EXTD=\n
EXTT0=
EXTT1=
EXTT2=
EXTT3=
EXTT4=
EXTT5=
EXTT6=
EXTT7=
EXTT8=
EXTT9=
EXTT10=
EXTT11=
EXTT12=
EXTT13=
EXTT14=
EXTT15=
EXTT16=
EXTT17=
EXTT18=
PLAYORDER=
